<mxfile host="app.diagrams.net" modified="2020-08-24T23:34:08.039Z" agent="5.0 (Macintosh; Intel Mac OS X 10_13_6) AppleWebKit/537.36 (KHTML, like Gecko) Chrome/84.0.4147.135 Safari/537.36" etag="GmLYY0dG5NanUrF1EgCV" version="13.6.5" type="github">
  <diagram name="Page-1" id="74b105a0-9070-1c63-61bc-23e55f88626e">
    <mxGraphModel dx="1965" dy="1108" grid="1" gridSize="10" guides="1" tooltips="1" connect="1" arrows="1" fold="1" page="1" pageScale="1.5" pageWidth="1169" pageHeight="826" background="none" math="0" shadow="0">
      <root>
        <mxCell id="0" style=";html=1;" />
        <mxCell id="1" style=";html=1;" parent="0" />
        <mxCell id="10b056a9c633e61c-22" style="edgeStyle=orthogonalEdgeStyle;rounded=0;html=1;endArrow=block;endFill=1;jettySize=auto;orthogonalLoop=1;strokeWidth=2;startArrow=none;startFill=0;" parent="1" target="10b056a9c633e61c-10" edge="1">
          <mxGeometry relative="1" as="geometry">
            <mxPoint x="1071.9999999999995" y="415" as="sourcePoint" />
          </mxGeometry>
        </mxCell>
        <mxCell id="10b056a9c633e61c-25" style="edgeStyle=orthogonalEdgeStyle;rounded=0;html=1;endArrow=block;endFill=1;jettySize=auto;orthogonalLoop=1;strokeWidth=2;startArrow=none;startFill=0;" parent="1" target="10b056a9c633e61c-12" edge="1">
          <mxGeometry relative="1" as="geometry">
            <mxPoint x="996.9999999999995" y="460" as="sourcePoint" />
          </mxGeometry>
        </mxCell>
        <mxCell id="10b056a9c633e61c-28" style="edgeStyle=orthogonalEdgeStyle;rounded=0;html=1;endArrow=block;endFill=1;jettySize=auto;orthogonalLoop=1;strokeWidth=2;startArrow=none;startFill=0;" parent="1" source="10b056a9c633e61c-10" edge="1">
          <mxGeometry relative="1" as="geometry">
            <Array as="points">
              <mxPoint x="1267" y="310" />
              <mxPoint x="247" y="310" />
            </Array>
            <mxPoint x="246.99999999999955" y="590" as="targetPoint" />
          </mxGeometry>
        </mxCell>
        <mxCell id="10b056a9c633e61c-24" style="edgeStyle=orthogonalEdgeStyle;rounded=0;html=1;endArrow=block;endFill=1;jettySize=auto;orthogonalLoop=1;strokeWidth=2;startArrow=none;startFill=0;entryX=0.5;entryY=1;entryDx=0;entryDy=0;entryPerimeter=0;" parent="1" source="v0CUPtQy1ZDoOrZJq2Ze-8" target="10b056a9c633e61c-15" edge="1">
          <mxGeometry relative="1" as="geometry">
            <mxPoint x="1081.0000000000005" y="770" as="sourcePoint" />
            <mxPoint x="994" y="1020" as="targetPoint" />
          </mxGeometry>
        </mxCell>
        <mxCell id="10b056a9c633e61c-15" value="InfluxDB" style="strokeWidth=2;dashed=0;align=center;fontSize=30;verticalLabelPosition=bottom;verticalAlign=top;shape=mxgraph.eip.message_store;fillColor=#c0f5a9" parent="1" vertex="1">
          <mxGeometry x="1014" y="520" width="140" height="80" as="geometry" />
        </mxCell>
        <mxCell id="10b056a9c633e61c-30" value="uWSGI monitoring diagram" style="text;strokeColor=none;fillColor=none;html=1;fontSize=24;fontStyle=1;verticalAlign=middle;align=center;" parent="1" vertex="1">
          <mxGeometry x="80" y="40" width="1590" height="40" as="geometry" />
        </mxCell>
        <mxCell id="v0CUPtQy1ZDoOrZJq2Ze-7" style="edgeStyle=orthogonalEdgeStyle;rounded=0;orthogonalLoop=1;jettySize=auto;html=1;exitX=0.5;exitY=1;exitDx=0;exitDy=0;exitPerimeter=0;entryX=0.5;entryY=0;entryDx=0;entryDy=0;entryPerimeter=0;fontSize=23;" edge="1" parent="1" source="v0CUPtQy1ZDoOrZJq2Ze-2" target="10b056a9c633e61c-15">
          <mxGeometry relative="1" as="geometry" />
        </mxCell>
        <mxCell id="v0CUPtQy1ZDoOrZJq2Ze-28" style="edgeStyle=orthogonalEdgeStyle;rounded=0;orthogonalLoop=1;jettySize=auto;html=1;exitX=1;exitY=0.5;exitDx=0;exitDy=0;exitPerimeter=0;fontSize=30;" edge="1" parent="1" source="v0CUPtQy1ZDoOrZJq2Ze-2" target="v0CUPtQy1ZDoOrZJq2Ze-26">
          <mxGeometry relative="1" as="geometry" />
        </mxCell>
        <mxCell id="v0CUPtQy1ZDoOrZJq2Ze-2" value="" style="strokeWidth=2;outlineConnect=0;dashed=0;align=center;fontSize=8;verticalLabelPosition=bottom;verticalAlign=top;shape=mxgraph.eip.control_bus;fillColor=#c0f5a9" vertex="1" parent="1">
          <mxGeometry x="1014" y="300" width="140" height="80" as="geometry" />
        </mxCell>
        <mxCell id="v0CUPtQy1ZDoOrZJq2Ze-3" value="Grafana&amp;nbsp;" style="text;html=1;strokeColor=none;fillColor=none;align=center;verticalAlign=middle;whiteSpace=wrap;rounded=0;fontSize=30;" vertex="1" parent="1">
          <mxGeometry x="954" y="389" width="280" height="20" as="geometry" />
        </mxCell>
        <mxCell id="v0CUPtQy1ZDoOrZJq2Ze-9" value="Telegraf" style="text;html=1;strokeColor=none;fillColor=none;align=center;verticalAlign=middle;whiteSpace=wrap;rounded=0;fontSize=30;" vertex="1" parent="1">
          <mxGeometry x="1064" y="820" width="40" height="20" as="geometry" />
        </mxCell>
        <mxCell id="v0CUPtQy1ZDoOrZJq2Ze-12" value="" style="pointerEvents=1;shadow=0;dashed=0;html=1;strokeColor=none;fillColor=#505050;labelPosition=center;verticalLabelPosition=bottom;verticalAlign=top;outlineConnect=0;align=center;shape=mxgraph.office.concepts.website;fontSize=30;aspect=fixed;" vertex="1" parent="1">
          <mxGeometry x="617" y="452.96000000000004" width="140" height="115.04" as="geometry" />
        </mxCell>
        <mxCell id="v0CUPtQy1ZDoOrZJq2Ze-14" style="edgeStyle=orthogonalEdgeStyle;rounded=0;orthogonalLoop=1;jettySize=auto;html=1;exitX=0;exitY=0.5;exitDx=0;exitDy=0;exitPerimeter=0;fontSize=30;" edge="1" parent="1" source="v0CUPtQy1ZDoOrZJq2Ze-8" target="v0CUPtQy1ZDoOrZJq2Ze-12">
          <mxGeometry relative="1" as="geometry" />
        </mxCell>
        <mxCell id="v0CUPtQy1ZDoOrZJq2Ze-8" value="" style="strokeWidth=2;outlineConnect=0;dashed=0;align=center;fontSize=8;fillColor=#c0f5a9;verticalLabelPosition=bottom;verticalAlign=top;shape=mxgraph.eip.aggregator;" vertex="1" parent="1">
          <mxGeometry x="1014" y="730" width="140" height="80" as="geometry" />
        </mxCell>
        <mxCell id="v0CUPtQy1ZDoOrZJq2Ze-15" value="uWSGI webserver" style="text;html=1;strokeColor=none;fillColor=none;align=center;verticalAlign=middle;whiteSpace=wrap;rounded=0;fontSize=30;" vertex="1" parent="1">
          <mxGeometry x="660" y="592" width="40" height="20" as="geometry" />
        </mxCell>
        <mxCell id="v0CUPtQy1ZDoOrZJq2Ze-23" style="edgeStyle=orthogonalEdgeStyle;rounded=0;orthogonalLoop=1;jettySize=auto;html=1;exitX=1;exitY=0.5;exitDx=0;exitDy=0;fontSize=30;" edge="1" parent="1" source="v0CUPtQy1ZDoOrZJq2Ze-20" target="v0CUPtQy1ZDoOrZJq2Ze-12">
          <mxGeometry relative="1" as="geometry" />
        </mxCell>
        <mxCell id="v0CUPtQy1ZDoOrZJq2Ze-20" value="wrk2:&lt;br&gt;&amp;nbsp;generate requests" style="rounded=0;whiteSpace=wrap;html=1;fontSize=30;" vertex="1" parent="1">
          <mxGeometry x="160" y="455" width="190" height="110" as="geometry" />
        </mxCell>
        <mxCell id="v0CUPtQy1ZDoOrZJq2Ze-21" value="localhost:9090" style="text;html=1;resizable=0;autosize=1;align=center;verticalAlign=middle;points=[];fillColor=none;strokeColor=none;rounded=0;fontSize=30;" vertex="1" parent="1">
          <mxGeometry x="377" y="470" width="210" height="40" as="geometry" />
        </mxCell>
        <mxCell id="v0CUPtQy1ZDoOrZJq2Ze-22" value="localhost:9191" style="text;html=1;resizable=0;autosize=1;align=center;verticalAlign=middle;points=[];fillColor=none;strokeColor=none;rounded=0;fontSize=30;" vertex="1" parent="1">
          <mxGeometry x="700" y="720" width="210" height="40" as="geometry" />
        </mxCell>
        <mxCell id="v0CUPtQy1ZDoOrZJq2Ze-24" value="localhost:8086" style="text;html=1;resizable=0;autosize=1;align=center;verticalAlign=middle;points=[];fillColor=none;strokeColor=none;rounded=0;fontSize=30;" vertex="1" parent="1">
          <mxGeometry x="1090" y="650" width="210" height="40" as="geometry" />
        </mxCell>
        <mxCell id="v0CUPtQy1ZDoOrZJq2Ze-25" value="localhost:3000" style="text;html=1;resizable=0;autosize=1;align=center;verticalAlign=middle;points=[];fillColor=none;strokeColor=none;rounded=0;fontSize=30;" vertex="1" parent="1">
          <mxGeometry x="1180" y="300" width="210" height="40" as="geometry" />
        </mxCell>
        <mxCell id="v0CUPtQy1ZDoOrZJq2Ze-26" value="" style="pointerEvents=1;shadow=0;dashed=0;html=1;strokeColor=none;fillColor=#505050;labelPosition=center;verticalLabelPosition=bottom;verticalAlign=top;outlineConnect=0;align=center;shape=mxgraph.office.concepts.website;fontSize=30;aspect=fixed;" vertex="1" parent="1">
          <mxGeometry x="1410" y="282.48" width="140" height="115.04" as="geometry" />
        </mxCell>
        <mxCell id="v0CUPtQy1ZDoOrZJq2Ze-30" value="uWSGI stats dashboard" style="text;html=1;strokeColor=none;fillColor=none;align=center;verticalAlign=middle;whiteSpace=wrap;rounded=0;fontSize=30;" vertex="1" parent="1">
          <mxGeometry x="1450" y="440" width="40" height="20" as="geometry" />
        </mxCell>
      </root>
    </mxGraphModel>
  </diagram>
</mxfile>
